<?xml version="1.0" encoding="UTF-8" standalone="no"?>
<svg
   xmlns:dc="http://purl.org/dc/elements/1.1/"
   xmlns:cc="http://creativecommons.org/ns#"
   xmlns:rdf="http://www.w3.org/1999/02/22-rdf-syntax-ns#"
   xmlns:svg="http://www.w3.org/2000/svg"
   xmlns="http://www.w3.org/2000/svg"
   viewBox="0 0 116 116"
   height="116"
   width="116"
   xml:space="preserve"
   version="1.1"
   id="svg2"><metadata
     id="metadata8"><rdf:RDF><cc:Work
         rdf:about=""><dc:format>image/svg+xml</dc:format><dc:type
           rdf:resource="http://purl.org/dc/dcmitype/StillImage" /></cc:Work></rdf:RDF></metadata><defs
     id="defs6" /><g
     transform="matrix(1.3333333,0,0,-1.3333333,0,116)"
     id="g10"><g
       transform="scale(0.1)"
       id="g12"><path
         id="path14"
         style="fill:#13c11e;fill-opacity:1;fill-rule:evenodd;stroke:none"
         d="M 437.004,9.64453 C 673.062,9.64453 864.43,201.012 864.43,437.07 864.43,673.133 673.062,864.5 437.004,864.5 200.938,864.5 9.57031,673.133 9.57031,437.07 9.57031,201.012 200.938,9.64453 437.004,9.64453" /><path
         id="path16"
         style="fill:#13c11e;fill-opacity:1;fill-rule:evenodd;stroke:none"
         d="m 437.004,45.9961 c 215.984,0 391.074,175.0939 391.074,391.0739 0,215.989 -175.09,391.078 -391.074,391.078 C 221.016,828.148 45.9258,653.059 45.9258,437.07 45.9258,221.09 221.016,45.9961 437.004,45.9961" /><path
         id="path18"
         style="fill:#0b7407;fill-opacity:1;fill-rule:evenodd;stroke:none"
         d="m 321.367,655.176 267.199,0 c 35.579,0 64.692,-29.11 64.692,-64.692 l 0,-267.195 -331.891,331.887 z m 232.324,-436.207 -268.253,0 c -35.583,0 -64.692,29.109 -64.692,64.691 l 0,268.254 332.945,-332.945" /></g></g></svg>